<?xml version="1.0" encoding="utf-8"?>
<!-- Generator: Adobe Illustrator 25.4.1, SVG Export Plug-In . SVG Version: 6.00 Build 0)  -->
<svg version="1.1" id="Layer_1" xmlns="http://www.w3.org/2000/svg" xmlns:xlink="http://www.w3.org/1999/xlink" x="0px" y="0px"
	 viewBox="0 0 827.3 110.1" style="enable-background:new 0 0 827.3 110.1;" xml:space="preserve">
<style type="text/css">
	.st0{fill:#5CB6DD;}
	.st1{fill:#797979;}
	.st2{opacity:0.2;}
</style>
<g>
	<path class="st0" d="M0,94.4l19.1-22.6c5.6,6.9,10.8,10.4,16.7,10.4c7.4,0,11.4-4.5,11.4-13.1v-40H11.4V2.4h70.8v64.7
		c0,28.9-15.2,43-43.5,43C22.4,110.1,8.7,104.7,0,94.4z"/>
	<path class="st0" d="M168,89.3h-40l-7.1,18.3H84.8l46-105.3h34.9l46,105.3H175L168,89.3z M158.2,63.8L148,37.3l-10.2,26.5H158.2z"
		/>
	<path class="st0" d="M210.8,99.2l11.4-25.9c9.9,5.9,23.2,9.6,34.7,9.6c10.1,0,13.7-2.1,13.7-5.7c0-13.2-58.2-2.6-58.2-41.8
		c0-19.5,16.4-35.5,49-35.5c14.1,0,28.7,3,39.7,9.2l-10.7,25.7c-10.4-5.3-20.2-7.8-29.3-7.8c-10.4,0-13.7,3-13.7,6.6
		c0,12.6,58.2,2.1,58.2,40.9c0,19.2-16.4,35.5-49,35.5C239.1,110.1,221.4,105.7,210.8,99.2z"/>
	<path class="st0" d="M312,55c0-31.9,25.1-55,59.4-55c34.3,0,59.4,23.2,59.4,55c0,31.9-25.1,55-59.4,55C337.1,110.1,312,86.9,312,55
		z M395,55c0-16.4-10.5-26.3-23.6-26.3c-13.1,0-23.6,9.9-23.6,26.3c0,16.4,10.5,26.3,23.6,26.3C384.5,81.4,395,71.4,395,55z"/>
</g>
<polygon class="st1" points="643.2,80.9 643.2,107.7 555.7,107.7 555.7,2.4 641.3,2.4 641.3,29.2 590.6,29.2 590.6,41.5 635.1,41.5 
	635.1,67.1 590.6,67.1 590.6,80.9 "/>
<polygon class="st1" points="684.4,29.2 684.4,47.2 728.3,47.2 728.3,74 684.4,74 684.4,107.7 648.9,107.7 648.9,2.4 734.5,2.4 
	734.5,29.2 "/>
<polygon class="st1" points="777.3,29.2 777.3,47.2 821.2,47.2 821.2,74 777.3,74 777.3,107.7 741.8,107.7 741.8,2.4 827.3,2.4 
	827.3,29.2 "/>
<g id="N_logo_00000063625420703641907890000016224104531639142830_">
	<path class="st1" d="M513.7,107.9V2.1h34.6v106.3l-34.3-0.1 M444.2,107.9V1.6h34.6v106.3"/>
	<path class="st2" d="M478.8,1.6h-34.6v2.5l67.4,104.2l36.6,0.1L478.8,1.6z"/>
	<path class="st0" d="M513.9,108.3L444.2,1.6h34.6l69.5,106.8"/>
</g>
</svg>
