<?xml version="1.0" encoding="utf-8"?>
<!-- Generator: Adobe Illustrator 25.4.1, SVG Export Plug-In . SVG Version: 6.00 Build 0)  -->
<svg version="1.1" id="Layer_1" xmlns="http://www.w3.org/2000/svg" xmlns:xlink="http://www.w3.org/1999/xlink" x="0px" y="0px"
	 viewBox="0 0 848.3 168.4" style="enable-background:new 0 0 848.3 168.4;" xml:space="preserve">
<style type="text/css">
	.st0{fill:#FFFFFF;}
	.st1{fill:#F7B780;}
	.st2{opacity:0.2;}
</style>
<g>
	<path class="st0" d="M1,114.6L20.1,92c5.6,6.9,10.8,10.4,16.7,10.4c7.4,0,11.4-4.5,11.4-13.1v-40H12.4V22.6h70.8v64.7
		c0,28.9-15.2,43-43.5,43C23.4,130.2,9.7,124.8,1,114.6z"/>
	<path class="st0" d="M169,109.5h-40l-7.1,18.3H85.8l46-105.3h34.9l46,105.3H176L169,109.5z M159.2,83.9L149,57.4l-10.2,26.5H159.2z
		"/>
	<path class="st0" d="M211.8,119.4l11.4-25.9c9.9,5.9,23.2,9.6,34.7,9.6c10.1,0,13.7-2.1,13.7-5.7c0-13.2-58.2-2.6-58.2-41.8
		c0-19.5,16.4-35.5,49-35.5c14.1,0,28.7,3,39.7,9.2L291.5,55c-10.4-5.3-20.2-7.8-29.3-7.8c-10.4,0-13.7,3-13.7,6.6
		c0,12.6,58.2,2.1,58.2,40.9c0,19.2-16.4,35.5-49,35.5C240.1,130.2,222.3,125.9,211.8,119.4z"/>
	<path class="st0" d="M313,75.2c0-31.9,25.1-55,59.4-55c34.3,0,59.4,23.2,59.4,55c0,31.9-25.1,55-59.4,55
		C338.1,130.2,313,107.1,313,75.2z M396,75.2c0-16.4-10.5-26.3-23.6-26.3c-13.1,0-23.6,9.9-23.6,26.3c0,16.4,10.5,26.3,23.6,26.3
		C385.5,101.5,396,91.6,396,75.2z"/>
</g>
<g>
	<g>
		<path class="st1" d="M652.2,101.1v26.8h-87.5V22.6h85.6v26.8h-50.7v12.3h44.5v25.6h-44.5v13.8H652.2z"/>
	</g>
	<g>
		<path class="st1" d="M701.4,49.3v18h43.9v26.8h-43.9v33.7h-35.5V22.6h85.6v26.8H701.4z"/>
	</g>
	<g>
		<path class="st1" d="M798.2,49.3v18h43.9v26.8h-43.9v33.7h-35.5V22.6h85.6v26.8H798.2z"/>
	</g>
</g>
<g id="N_logo_00000164471881609967788440000008428062434515863204_">
	<path class="st1" d="M513.7,128.1V27.3l34.6-22v123.3l-34.3-0.1 M444.2,145V21.8h34.6V125"/>
	<path class="st2" d="M478.8,21.8h-34.6v2.5l67.4,104.2l36.6,0.1L478.8,21.8z"/>
	<path class="st0" d="M513.9,128.5L444.2,21.8h34.6l69.5,106.8"/>
</g>
</svg>
